<svg aria-hidden="true" style="position: absolute; width: 0; height: 0; overflow: hidden;" version="1.1" xmlns="http://www.w3.org/2000/svg" xmlns:xlink="http://www.w3.org/1999/xlink">
<defs>

<symbol id="icon-basket" viewBox="0 0 32 32">
<path d="M10.31 20.688h0.001c0.001 0 0.002-0 0.004-0h16.997c0.418 0 0.786-0.278 0.901-0.68l3.75-13.125c0.081-0.283 0.024-0.587-0.153-0.822s-0.454-0.373-0.748-0.373h-22.915l-0.67-3.016c-0.095-0.429-0.476-0.734-0.915-0.734h-5.625c-0.518 0-0.938 0.42-0.938 0.938s0.42 0.938 0.938 0.938h4.873c0.119 0.534 3.207 14.432 3.385 15.232-0.996 0.433-1.695 1.426-1.695 2.58 0 1.551 1.262 2.812 2.813 2.812h17c0.518 0 0.937-0.42 0.937-0.937s-0.42-0.937-0.937-0.937h-17c-0.517 0-0.938-0.421-0.938-0.938s0.419-0.936 0.935-0.937zM29.82 7.563l-3.214 11.25h-15.541l-2.5-11.25h21.255z"></path>
<path d="M9.375 27.25c0 1.551 1.262 2.813 2.813 2.813s2.813-1.262 2.813-2.813c0-1.551-1.262-2.812-2.813-2.812s-2.813 1.262-2.813 2.812zM12.188 26.312c0.517 0 0.938 0.421 0.938 0.937s-0.421 0.938-0.938 0.938-0.938-0.421-0.938-0.938c0-0.517 0.421-0.937 0.938-0.937z"></path>
<path d="M25.6 27.612c0 1.551 1.262 2.812 2.812 2.812s2.812-1.262 2.812-2.812c0-1.551-1.262-2.812-2.812-2.812s-2.812 1.262-2.812 2.812zM28.412 26.675c0.517 0 0.938 0.421 0.938 0.937s-0.421 0.938-0.938 0.938c-0.517 0-0.937-0.421-0.937-0.938s0.421-0.937 0.937-0.937z"></path>
</symbol>

<symbol id="icon-drop_arrow_down" viewBox="0 0 29 32">
<path d="M14.4 23.834c-0.335 0-0.67-0.128-0.926-0.384l-13.091-13.091c-0.512-0.512-0.512-1.34 0-1.851s1.34-0.512 1.851 0l12.165 12.165 12.165-12.165c0.512-0.512 1.34-0.512 1.851 0s0.512 1.34 0 1.851l-13.091 13.091c-0.256 0.256-0.591 0.384-0.926 0.384z"></path>
</symbol>

<symbol id="icon-drop_arrow_up" viewBox="0 0 29 32">
<path d="M14.4 8.125c0.335 0 0.67 0.128 0.926 0.384l13.091 13.091c0.512 0.512 0.512 1.34 0 1.851s-1.34 0.512-1.851 0l-12.165-12.165-12.165 12.165c-0.512 0.512-1.34 0.512-1.851 0s-0.512-1.34 0-1.851l13.091-13.091c0.256-0.256 0.591-0.384 0.926-0.384z"></path>
</symbol>

<symbol id="icon-logo" viewBox="0 0 103 32">
<path d="M5.594 16.919c1.956 0 3.688-0.969 4.604-2.484l-2.129-1.242c-0.446 0.845-1.386 1.317-2.475 1.317-1.906 0-3.144-1.267-3.144-3.204 0-1.913 1.238-3.205 3.144-3.205 1.089 0 2.005 0.497 2.475 1.341l2.129-1.242c-0.941-1.515-2.649-2.484-4.604-2.484-3.243 0-5.594 2.434-5.594 5.589 0 3.18 2.352 5.614 5.594 5.614zM23.763 18.782c-0.767-0.174-1.386-0.795-1.559-1.565-0.025-0.025-0.050-0.050-0.074-0.050s-0.050 0.025-0.050 0.050c-0.198 0.77-0.792 1.391-1.559 1.565-0.025 0-0.049 0.025-0.049 0.050s0.025 0.050 0.049 0.075c0.767 0.174 1.361 0.795 1.559 1.565 0 0.025 0.025 0.050 0.050 0.050s0.049-0.025 0.074-0.050c0.173-0.77 0.792-1.391 1.559-1.565 0.025-0.025 0.049-0.050 0.049-0.075s-0.025-0.050-0.049-0.050zM13.169 3.406c-0.767-0.174-1.386-0.795-1.559-1.565 0-0.025-0.025-0.050-0.074-0.050-0.025 0-0.050 0.025-0.050 0.050-0.173 0.77-0.792 1.391-1.559 1.565-0.025 0-0.050 0.025-0.050 0.050s0.025 0.050 0.050 0.075c0.767 0.174 1.386 0.795 1.559 1.565 0 0.025 0.025 0.050 0.050 0.050 0.050 0 0.074-0.025 0.074-0.050 0.173-0.77 0.792-1.391 1.559-1.565 0.025-0.025 0.050-0.050 0.050-0.075s-0.025-0.050-0.050-0.050zM27.427 1.617c-0.767-0.174-1.386-0.795-1.559-1.565-0.025-0.025-0.049-0.050-0.074-0.050s-0.049 0.025-0.049 0.050c-0.173 0.77-0.792 1.391-1.559 1.565-0.025 0-0.049 0.025-0.049 0.050 0 0.050 0.025 0.050 0.049 0.075 0.767 0.174 1.386 0.795 1.559 1.565 0 0.025 0.025 0.050 0.049 0.050s0.049-0.025 0.074-0.050c0.173-0.77 0.792-1.391 1.559-1.565 0.025-0.025 0.050-0.025 0.050-0.075 0-0.025-0.025-0.050-0.050-0.050zM20.669 2.561c1.609 0.671 1.287 5.142-0.718 10.011-2.005 4.844-4.951 8.247-6.535 7.577-1.015-0.422-1.262-2.385-0.767-5.018-0.916-0.994-1.46-2.335-1.46-3.825 0-3.055 2.352-5.44 5.297-5.589 1.535-2.31 3.144-3.602 4.183-3.155zM13.54 15.901c-0.074 1.143 0.099 1.913 0.545 2.111 0.495 0.199 1.188-0.248 1.931-1.143-0.916-0.124-1.758-0.447-2.475-0.969zM17.649 14.41c0.396-0.72 0.767-1.49 1.114-2.335 0.322-0.795 0.594-1.565 0.817-2.285-0.52-1.043-1.559-1.689-2.797-1.689-1.758 0-3.144 1.292-3.144 3.205 0 1.938 1.386 3.204 3.144 3.204 0.297 0 0.594-0.025 0.866-0.099zM20.199 6.859c0.124-1.242-0.050-2.087-0.545-2.31-0.495-0.199-1.213 0.273-1.98 1.217 0.941 0.149 1.807 0.547 2.525 1.093zM18.59 16.621c2.203-0.72 3.787-2.782 3.787-5.316 0-0.894-0.223-1.739-0.569-2.484-0.322 1.267-0.792 2.633-1.361 4.024s-1.188 2.658-1.857 3.776zM27.575 16.919c2.327 0 3.985-1.217 3.985-3.304 0-2.285-1.807-2.857-3.441-3.354-1.683-0.497-1.931-0.845-1.931-1.341 0-0.422 0.371-0.82 1.139-0.82 0.99 0 1.485 0.497 1.857 1.267l2.079-1.217c-0.792-1.59-2.154-2.434-3.936-2.434-1.857 0-3.614 1.192-3.614 3.279 0 2.062 1.584 2.832 3.168 3.279 1.609 0.447 2.228 0.696 2.228 1.366 0 0.422-0.297 0.869-1.46 0.869-1.213 0-1.857-0.596-2.253-1.49l-2.129 1.242c0.619 1.59 2.055 2.658 4.307 2.658zM43.937 5.915h-2.475l-2.921 4.794-2.896-4.794h-2.475v10.806h2.475v-6.285l2.772 4.571h0.272l2.772-4.571v6.285h2.475v-10.806zM51.339 16.919c3.094 0 5.594-2.434 5.594-5.614 0-3.155-2.5-5.589-5.594-5.589-3.069 0-5.569 2.434-5.569 5.589 0 3.18 2.5 5.614 5.569 5.614zM51.339 14.51c-1.733 0-3.119-1.267-3.119-3.204 0-1.913 1.386-3.205 3.119-3.205 1.758 0 3.144 1.292 3.144 3.205 0 1.938-1.386 3.204-3.144 3.204zM63.072 5.915h-4.307v10.806h4.307c2.97 0 5.223-2.36 5.223-5.415 0-3.031-2.252-5.391-5.223-5.391zM63.072 14.336h-1.832v-6.036h1.832c1.683 0 2.871 1.168 2.871 3.006 0 1.863-1.188 3.031-2.871 3.031zM75.77 16.72h2.648l-2.277-3.975c1.188-0.596 1.98-1.789 1.98-3.13 0-2.037-1.658-3.701-3.688-3.701h-4.307v10.806h2.451v-3.552h1.188l2.005 3.552zM72.577 8.225h1.857c0.668 0 1.238 0.621 1.238 1.391 0 0.795-0.569 1.391-1.238 1.391h-1.857v-2.782zM85.004 16.919c3.094 0 5.594-2.434 5.594-5.614 0-3.155-2.5-5.589-5.594-5.589s-5.594 2.434-5.594 5.589c0 3.18 2.5 5.614 5.594 5.614zM85.004 14.51c-1.758 0-3.144-1.267-3.144-3.204 0-1.913 1.386-3.205 3.144-3.205s3.144 1.292 3.144 3.205c0 1.938-1.386 3.204-3.144 3.204zM103.172 5.915h-2.451l-2.921 4.794-2.921-4.794h-2.451v10.806h2.451v-6.285l2.797 4.571h0.272l2.772-4.571v6.285h2.451v-10.806z"></path>
<path d="M0 25.936h3.688v0.72h-1.46v3.602h-0.743v-3.602h-1.485v-0.72zM8.119 29.712c-0.446 0.447-0.965 0.671-1.609 0.671s-1.188-0.224-1.634-0.671c-0.421-0.422-0.644-0.969-0.644-1.615s0.223-1.168 0.644-1.615c0.446-0.447 0.99-0.671 1.634-0.671s1.163 0.224 1.609 0.671c0.446 0.447 0.668 0.994 0.668 1.615 0 0.646-0.223 1.192-0.668 1.615zM6.51 29.638c0.421 0 0.792-0.149 1.089-0.447 0.297-0.273 0.446-0.646 0.446-1.093s-0.149-0.795-0.446-1.093c-0.297-0.298-0.668-0.447-1.089-0.447s-0.792 0.149-1.089 0.447-0.446 0.646-0.446 1.093c0 0.447 0.149 0.82 0.446 1.093 0.297 0.298 0.668 0.447 1.089 0.447zM12.847 28.048c0.446 0.174 0.668 0.522 0.668 0.994 0 0.373-0.124 0.671-0.371 0.894s-0.569 0.323-1.015 0.323h-2.154v-4.322h1.98c0.421 0 0.767 0.099 0.99 0.323 0.248 0.199 0.371 0.497 0.371 0.845 0 0.422-0.173 0.745-0.47 0.944zM11.931 26.607h-1.238v1.143h1.238c0.421 0 0.644-0.199 0.644-0.596 0-0.348-0.223-0.546-0.644-0.546zM10.694 29.588h1.386c0.223 0 0.396-0.050 0.52-0.149 0.099-0.124 0.173-0.273 0.173-0.447s-0.074-0.323-0.173-0.422c-0.124-0.099-0.297-0.149-0.52-0.149h-1.386v1.168zM18.194 26.682v-0.745h0.743v4.322h-0.743v-0.745c-0.371 0.571-0.916 0.869-1.634 0.869-0.619 0-1.139-0.224-1.559-0.671-0.421-0.422-0.619-0.969-0.619-1.615 0-0.621 0.198-1.168 0.619-1.615 0.446-0.447 0.941-0.671 1.559-0.671 0.718 0 1.262 0.298 1.634 0.869zM16.659 29.663c0.421 0 0.792-0.149 1.089-0.447s0.446-0.671 0.446-1.118c0-0.447-0.148-0.795-0.446-1.093s-0.668-0.447-1.089-0.447c-0.446 0-0.792 0.149-1.089 0.447s-0.446 0.646-0.446 1.093c0 0.447 0.149 0.82 0.446 1.118s0.644 0.447 1.089 0.447zM22.748 25.812c0.619 0 1.139 0.224 1.559 0.671s0.644 0.994 0.644 1.615c0 0.646-0.223 1.192-0.644 1.615-0.421 0.447-0.941 0.671-1.559 0.671-0.693 0-1.238-0.298-1.634-0.869v2.484h-0.743v-6.061h0.743v0.745c0.396-0.571 0.941-0.869 1.634-0.869zM22.674 29.663c0.421 0 0.792-0.149 1.089-0.447 0.272-0.298 0.421-0.671 0.421-1.118s-0.149-0.795-0.421-1.093c-0.297-0.298-0.668-0.447-1.089-0.447-0.446 0-0.817 0.149-1.114 0.447s-0.446 0.646-0.446 1.093c0 0.447 0.149 0.82 0.446 1.118s0.668 0.447 1.114 0.447zM26.882 27.501h1.089c0.421 0 0.767 0.124 1.064 0.373 0.272 0.273 0.421 0.596 0.421 1.018 0 0.397-0.149 0.745-0.421 0.994-0.297 0.248-0.644 0.373-1.064 0.373h-1.832v-4.322h0.743v1.565zM30.026 30.259v-4.322h0.743v4.322h-0.743zM26.882 29.563h1.089c0.198 0 0.396-0.050 0.545-0.199 0.124-0.124 0.198-0.273 0.198-0.472 0-0.224-0.074-0.373-0.223-0.497-0.149-0.149-0.322-0.199-0.52-0.199h-1.089v1.366zM38.096 25.936v3.602h0.594v1.888h-0.743v-1.168h-3.243v1.168h-0.743v-1.888h0.52c0.297-0.373 0.421-0.894 0.421-1.59v-2.012h3.193zM35.348 29.538h2.005v-2.906h-1.708v1.317c0 0.621-0.099 1.168-0.297 1.59zM40.2 25.936h3.193v4.322h-0.743v-3.602h-1.708v1.764c0 0.695-0.149 1.192-0.421 1.49s-0.668 0.422-1.213 0.348v-0.696c0.297 0.025 0.52-0.025 0.668-0.199s0.223-0.497 0.223-0.944v-2.484zM46.215 25.936h1.857v4.322h-0.743v-1.54h-0.644l-1.213 1.54h-0.916l1.262-1.59c-0.322-0.075-0.594-0.248-0.792-0.497-0.198-0.224-0.297-0.522-0.297-0.845 0-0.397 0.149-0.72 0.421-0.994 0.297-0.273 0.644-0.397 1.064-0.397zM46.239 28.023h1.089v-1.391h-1.089c-0.223 0-0.396 0.075-0.545 0.199s-0.223 0.298-0.223 0.497c0 0.224 0.074 0.373 0.223 0.522 0.149 0.124 0.322 0.174 0.545 0.174zM55.373 25.936v3.602h0.594v1.888h-0.743v-1.168h-3.243v1.168h-0.743v-1.888h0.52c0.272-0.373 0.421-0.894 0.421-1.59v-2.012h3.193zM52.626 29.538h2.005v-2.906h-1.708v1.317c0 0.621-0.099 1.168-0.297 1.59zM61.042 28.445h-3.614c0.074 0.373 0.248 0.696 0.52 0.894 0.273 0.224 0.619 0.323 1.040 0.323 0.569 0 0.99-0.199 1.238-0.621l0.644 0.373c-0.421 0.646-1.065 0.969-1.906 0.969-0.668 0-1.238-0.224-1.658-0.646-0.446-0.447-0.644-0.994-0.644-1.64s0.198-1.192 0.619-1.615c0.421-0.447 0.966-0.671 1.634-0.671 0.644 0 1.164 0.224 1.56 0.696 0.396 0.422 0.594 0.969 0.594 1.615 0 0.099 0 0.199-0.025 0.323zM58.913 26.533c-0.396 0-0.718 0.124-0.99 0.348s-0.446 0.522-0.495 0.919h2.872c-0.050-0.397-0.223-0.72-0.471-0.944s-0.545-0.323-0.916-0.323zM61.562 25.936h3.713v0.72h-1.485v3.602h-0.743v-3.602h-1.485v-0.72zM70.201 28.445h-3.639c0.074 0.373 0.247 0.696 0.545 0.894 0.272 0.224 0.618 0.323 1.015 0.323 0.569 0 0.99-0.199 1.262-0.621l0.644 0.373c-0.446 0.646-1.064 0.969-1.906 0.969-0.693 0-1.238-0.224-1.683-0.646-0.42-0.447-0.643-0.994-0.643-1.64s0.223-1.192 0.643-1.615c0.421-0.447 0.966-0.671 1.634-0.671 0.618 0 1.138 0.224 1.534 0.696 0.396 0.422 0.619 0.969 0.619 1.615 0 0.099-0.025 0.199-0.025 0.323zM68.072 26.533c-0.396 0-0.743 0.124-1.015 0.348s-0.421 0.522-0.495 0.919h2.896c-0.074-0.397-0.223-0.72-0.47-0.944-0.273-0.224-0.569-0.323-0.916-0.323zM74.409 25.291h-2.327v-0.671h2.327v0.671zM72.107 28.967l2.401-3.031h0.594v4.322h-0.743v-3.031l-2.376 3.031h-0.618v-4.322h0.743v3.031zM82.355 29.712c-0.446 0.447-0.99 0.671-1.609 0.671-0.644 0-1.188-0.224-1.634-0.671-0.421-0.422-0.644-0.969-0.644-1.615s0.223-1.168 0.644-1.615c0.445-0.447 0.99-0.671 1.634-0.671 0.618 0 1.163 0.224 1.609 0.671s0.668 0.994 0.668 1.615c0 0.646-0.222 1.192-0.668 1.615zM80.746 29.638c0.42 0 0.792-0.149 1.089-0.447 0.272-0.273 0.421-0.646 0.421-1.093s-0.149-0.795-0.421-1.093c-0.297-0.298-0.669-0.447-1.089-0.447-0.446 0-0.792 0.149-1.089 0.447s-0.446 0.646-0.446 1.093c0 0.447 0.148 0.82 0.446 1.093 0.297 0.298 0.643 0.447 1.089 0.447zM84.186 25.936h3.763v4.322h-0.767v-3.602h-2.228v3.602h-0.767v-4.322zM88.89 25.936h3.688v0.72h-1.46v3.602h-0.743v-3.602h-1.485v-0.72zM97.009 29.712c-0.445 0.447-0.965 0.671-1.609 0.671s-1.188-0.224-1.634-0.671c-0.421-0.422-0.643-0.969-0.643-1.615s0.222-1.168 0.643-1.615c0.446-0.447 0.99-0.671 1.634-0.671s1.164 0.224 1.609 0.671c0.446 0.447 0.669 0.994 0.669 1.615 0 0.646-0.223 1.192-0.669 1.615zM95.4 29.638c0.421 0 0.792-0.149 1.089-0.447 0.297-0.273 0.421-0.646 0.421-1.093s-0.124-0.795-0.421-1.093c-0.297-0.298-0.668-0.447-1.089-0.447-0.445 0-0.792 0.149-1.089 0.447s-0.446 0.646-0.446 1.093c0 0.447 0.149 0.82 0.446 1.093 0.297 0.298 0.644 0.447 1.089 0.447zM102.38 25.936h0.792v4.322h-0.743v-3.13l-1.362 2.211h-0.099l-1.362-2.211v3.13h-0.743v-4.322h0.792l1.362 2.186 1.361-2.186z"></path>
</symbol>

<symbol id="icon-phone" viewBox="0 0 30 32">
<path d="M29.183 23.017l-4.187-4.187c-1.495-1.495-4.037-0.897-4.635 1.047-0.448 1.346-1.944 2.093-3.289 1.794-2.99-0.748-7.027-4.635-7.775-7.775-0.449-1.346 0.449-2.841 1.794-3.289 1.944-0.598 2.542-3.14 1.047-4.635l-4.187-4.187c-1.196-1.047-2.99-1.047-4.037 0l-2.841 2.841c-2.841 2.99 0.299 10.915 7.327 17.943s14.952 10.317 17.943 7.327l2.841-2.841c1.047-1.196 1.047-2.99 0-4.037z"></path>
</symbol>

<symbol id="icon-telegram" viewBox="0 0 32 32">
<path d="M32 16c0 8.836-7.164 16-16 16s-16-7.164-16-16c0-8.837 7.163-16 16-16s16 7.163 16 16zM16.573 11.812c-1.556 0.647-4.666 1.987-9.331 4.019-0.757 0.301-1.154 0.596-1.19 0.884-0.061 0.487 0.549 0.679 1.379 0.94 0.113 0.036 0.23 0.072 0.35 0.111 0.817 0.266 1.916 0.576 2.487 0.589 0.518 0.011 1.097-0.203 1.735-0.641 4.358-2.942 6.608-4.429 6.749-4.461 0.1-0.023 0.238-0.051 0.331 0.032s0.084 0.241 0.074 0.283c-0.060 0.258-2.454 2.483-3.693 3.634-0.386 0.359-0.66 0.614-0.716 0.672-0.125 0.13-0.253 0.254-0.376 0.372-0.759 0.732-1.328 1.28 0.032 2.176 0.653 0.431 1.176 0.787 1.698 1.142 0.57 0.388 1.138 0.775 1.873 1.257 0.187 0.123 0.366 0.25 0.54 0.375 0.663 0.473 1.258 0.897 1.994 0.829 0.428-0.039 0.869-0.441 1.093-1.64 0.53-2.834 1.572-8.973 1.813-11.503 0.021-0.222-0.005-0.505-0.027-0.63s-0.066-0.302-0.228-0.433c-0.192-0.156-0.488-0.188-0.62-0.186-0.602 0.011-1.525 0.332-5.968 2.18z"></path>
</symbol>

<symbol id="icon-youtube" viewBox="0 0 43 32">
<path d="M40.34 2.554c-0.663-0.663-1.487-1.14-2.392-1.385-3.311-0.903-16.637-0.903-16.637-0.903s-13.326 0.027-16.637 0.93c-0.904 0.245-1.729 0.722-2.392 1.385s-1.14 1.487-1.385 2.392c-1.002 5.883-1.39 14.848 0.027 20.495 0.245 0.905 0.722 1.729 1.385 2.391s1.487 1.14 2.392 1.385c3.311 0.903 16.637 0.903 16.637 0.903s13.326 0 16.637-0.903c0.904-0.245 1.729-0.722 2.391-1.385s1.14-1.487 1.385-2.391c1.056-5.891 1.382-14.85-0.028-20.523-0.245-0.904-0.722-1.729-1.385-2.392zM28.125 15.207l-11.055 6.403v-12.806l11.055 6.403z"></path>
</symbol>

</defs>
</svg>
