<svg width="20" height="15" viewBox="0 0 20 15"  xmlns="http://www.w3.org/2000/svg">
  <path fill-rule="evenodd" clip-rule="evenodd" d="M18.9096 1.19735C19.2201 1.50791 19.4439 1.89442 19.5586 2.31837C20.2192 4.97736 20.0666 9.17683 19.5715 11.9384C19.4567 12.3624 19.233 12.7489 18.9224 13.0594C18.6118 13.37 18.2253 13.5938 17.8014 13.7085C16.2493 14.1318 10.0027 14.1318 10.0027 14.1318C10.0027 14.1318 3.75609 14.1318 2.20405 13.7085C1.7801 13.5938 1.39359 13.37 1.08303 13.0594C0.772467 12.7489 0.548682 12.3624 0.433962 11.9384C-0.230463 9.29099 -0.0483238 5.08895 0.421135 2.3312C0.535856 1.90724 0.75964 1.52074 1.0702 1.21018C1.38077 0.899615 1.76727 0.67583 2.19122 0.561109C3.74326 0.137827 9.98988 0.125 9.98988 0.125C9.98988 0.125 16.2365 0.125 17.7885 0.548282C18.2125 0.663003 18.599 0.886788 18.9096 1.19735ZM13.1837 7.12841L8.00171 10.1299V4.12695L13.1837 7.12841Z"/>
</svg>